# xmcd
#
# Track frame offsets:
# 150
# 13650
# 27806
# 42930
# 60166
# 74369
# 90869
# 105568
# 120778
# 131765
# 144015
# 157898
# 173147
# 190470
# 201981
# 214861
# 232620
# 248565
# 263964
# 280148
#
# Disc length: 3987 seconds
#
# Revision: 0
# Processed by: cddbd v1.5PL3 Copyright (c) Steve Scherf et al.
# Submitted via: Audion 3.0.2 (http://www.panic.com/audion/)
#
DISCID=fe0f9114
DTITLE=Christopher Reich - Numbered Account
DYEAR=1900
DGENRE=
TTITLE0=1
TTITLE1=2
TTITLE2=3
TTITLE3=4
TTITLE4=5
TTITLE5=6
TTITLE6=7
TTITLE7=8
TTITLE8=9
TTITLE9=10
TTITLE10=11
TTITLE11=12
TTITLE12=13
TTITLE13=14
TTITLE14=15
TTITLE15=16
TTITLE16=17
TTITLE17=18
TTITLE18=19
TTITLE19=20
EXTD=
EXTT0=
EXTT1=
EXTT2=
EXTT3=
EXTT4=
EXTT5=
EXTT6=
EXTT7=
EXTT8=
EXTT9=
EXTT10=
EXTT11=
EXTT12=
EXTT13=
EXTT14=
EXTT15=
EXTT16=
EXTT17=
EXTT18=
EXTT19=
PLAYORDER=
